<mxfile host="app.diagrams.net" modified="2020-07-28T20:31:33.044Z" agent="5.0 (Windows NT 10.0; Win64; x64) AppleWebKit/537.36 (KHTML, like Gecko) Chrome/84.0.4147.105 Safari/537.36" etag="HK4OC4yjkav7Ei1xzyun" version="13.5.4" type="github">
  <diagram id="C5RBs43oDa-KdzZeNtuy" name="Page-1">
    <mxGraphModel dx="1609" dy="437" grid="1" gridSize="10" guides="1" tooltips="1" connect="1" arrows="1" fold="1" page="1" pageScale="1" pageWidth="827" pageHeight="1169" math="0" shadow="0">
      <root>
        <mxCell id="WIyWlLk6GJQsqaUBKTNV-0" />
        <mxCell id="WIyWlLk6GJQsqaUBKTNV-1" parent="WIyWlLk6GJQsqaUBKTNV-0" />
        <mxCell id="q6EzRjUbAgPRYSUWs--T-11" style="edgeStyle=orthogonalEdgeStyle;rounded=0;orthogonalLoop=1;jettySize=auto;html=1;" edge="1" parent="WIyWlLk6GJQsqaUBKTNV-1" source="q6EzRjUbAgPRYSUWs--T-3">
          <mxGeometry relative="1" as="geometry">
            <mxPoint x="580" y="239" as="targetPoint" />
          </mxGeometry>
        </mxCell>
        <mxCell id="q6EzRjUbAgPRYSUWs--T-12" style="edgeStyle=orthogonalEdgeStyle;rounded=0;orthogonalLoop=1;jettySize=auto;html=1;" edge="1" parent="WIyWlLk6GJQsqaUBKTNV-1" source="q6EzRjUbAgPRYSUWs--T-4">
          <mxGeometry relative="1" as="geometry">
            <mxPoint x="580" y="265" as="targetPoint" />
          </mxGeometry>
        </mxCell>
        <mxCell id="q6EzRjUbAgPRYSUWs--T-13" style="edgeStyle=orthogonalEdgeStyle;rounded=0;orthogonalLoop=1;jettySize=auto;html=1;" edge="1" parent="WIyWlLk6GJQsqaUBKTNV-1" source="q6EzRjUbAgPRYSUWs--T-5">
          <mxGeometry relative="1" as="geometry">
            <mxPoint x="580" y="291" as="targetPoint" />
          </mxGeometry>
        </mxCell>
        <mxCell id="q6EzRjUbAgPRYSUWs--T-25" style="edgeStyle=orthogonalEdgeStyle;rounded=0;orthogonalLoop=1;jettySize=auto;html=1;" edge="1" parent="WIyWlLk6GJQsqaUBKTNV-1" source="q6EzRjUbAgPRYSUWs--T-15" target="q6EzRjUbAgPRYSUWs--T-22">
          <mxGeometry relative="1" as="geometry" />
        </mxCell>
        <mxCell id="q6EzRjUbAgPRYSUWs--T-26" style="edgeStyle=orthogonalEdgeStyle;rounded=0;orthogonalLoop=1;jettySize=auto;html=1;" edge="1" parent="WIyWlLk6GJQsqaUBKTNV-1" source="q6EzRjUbAgPRYSUWs--T-16" target="q6EzRjUbAgPRYSUWs--T-23">
          <mxGeometry relative="1" as="geometry" />
        </mxCell>
        <mxCell id="q6EzRjUbAgPRYSUWs--T-27" style="edgeStyle=orthogonalEdgeStyle;rounded=0;orthogonalLoop=1;jettySize=auto;html=1;" edge="1" parent="WIyWlLk6GJQsqaUBKTNV-1" source="q6EzRjUbAgPRYSUWs--T-17" target="q6EzRjUbAgPRYSUWs--T-24">
          <mxGeometry relative="1" as="geometry" />
        </mxCell>
        <mxCell id="q6EzRjUbAgPRYSUWs--T-2" value="ODS" style="swimlane;fontStyle=0;childLayout=stackLayout;horizontal=1;startSize=26;fillColor=none;horizontalStack=0;resizeParent=1;resizeParentMax=0;resizeLast=0;collapsible=1;marginBottom=0;" vertex="1" parent="WIyWlLk6GJQsqaUBKTNV-1">
          <mxGeometry x="620" y="200" width="140" height="104" as="geometry" />
        </mxCell>
        <mxCell id="q6EzRjUbAgPRYSUWs--T-3" value="PERIOD" style="text;strokeColor=none;fillColor=none;align=left;verticalAlign=top;spacingLeft=4;spacingRight=4;overflow=hidden;rotatable=0;points=[[0,0.5],[1,0.5]];portConstraint=eastwest;" vertex="1" parent="q6EzRjUbAgPRYSUWs--T-2">
          <mxGeometry y="26" width="140" height="26" as="geometry" />
        </mxCell>
        <mxCell id="q6EzRjUbAgPRYSUWs--T-4" value="MRF" style="text;strokeColor=none;fillColor=none;align=left;verticalAlign=top;spacingLeft=4;spacingRight=4;overflow=hidden;rotatable=0;points=[[0,0.5],[1,0.5]];portConstraint=eastwest;" vertex="1" parent="q6EzRjUbAgPRYSUWs--T-2">
          <mxGeometry y="52" width="140" height="26" as="geometry" />
        </mxCell>
        <mxCell id="q6EzRjUbAgPRYSUWs--T-5" value="CHARGES" style="text;strokeColor=none;fillColor=none;align=left;verticalAlign=top;spacingLeft=4;spacingRight=4;overflow=hidden;rotatable=0;points=[[0,0.5],[1,0.5]];portConstraint=eastwest;" vertex="1" parent="q6EzRjUbAgPRYSUWs--T-2">
          <mxGeometry y="78" width="140" height="26" as="geometry" />
        </mxCell>
        <mxCell id="q6EzRjUbAgPRYSUWs--T-14" value="S2T" style="swimlane;fontStyle=0;childLayout=stackLayout;horizontal=1;startSize=26;fillColor=none;horizontalStack=0;resizeParent=1;resizeParentMax=0;resizeLast=0;collapsible=1;marginBottom=0;" vertex="1" parent="WIyWlLk6GJQsqaUBKTNV-1">
          <mxGeometry x="440" y="200" width="140" height="104" as="geometry" />
        </mxCell>
        <mxCell id="q6EzRjUbAgPRYSUWs--T-15" value="PERIOD" style="text;strokeColor=none;fillColor=none;align=left;verticalAlign=top;spacingLeft=4;spacingRight=4;overflow=hidden;rotatable=0;points=[[0,0.5],[1,0.5]];portConstraint=eastwest;" vertex="1" parent="q6EzRjUbAgPRYSUWs--T-14">
          <mxGeometry y="26" width="140" height="26" as="geometry" />
        </mxCell>
        <mxCell id="q6EzRjUbAgPRYSUWs--T-16" value="MRF" style="text;strokeColor=none;fillColor=none;align=left;verticalAlign=top;spacingLeft=4;spacingRight=4;overflow=hidden;rotatable=0;points=[[0,0.5],[1,0.5]];portConstraint=eastwest;" vertex="1" parent="q6EzRjUbAgPRYSUWs--T-14">
          <mxGeometry y="52" width="140" height="26" as="geometry" />
        </mxCell>
        <mxCell id="q6EzRjUbAgPRYSUWs--T-17" value="CHARGES" style="text;strokeColor=none;fillColor=none;align=left;verticalAlign=top;spacingLeft=4;spacingRight=4;overflow=hidden;rotatable=0;points=[[0,0.5],[1,0.5]];portConstraint=eastwest;" vertex="1" parent="q6EzRjUbAgPRYSUWs--T-14">
          <mxGeometry y="78" width="140" height="26" as="geometry" />
        </mxCell>
        <mxCell id="q6EzRjUbAgPRYSUWs--T-21" value="БФТ" style="swimlane;fontStyle=0;childLayout=stackLayout;horizontal=1;startSize=26;fillColor=none;horizontalStack=0;resizeParent=1;resizeParentMax=0;resizeLast=0;collapsible=1;marginBottom=0;" vertex="1" parent="WIyWlLk6GJQsqaUBKTNV-1">
          <mxGeometry x="260" y="200" width="140" height="104" as="geometry" />
        </mxCell>
        <mxCell id="q6EzRjUbAgPRYSUWs--T-22" value="Дата" style="text;strokeColor=none;fillColor=none;align=left;verticalAlign=top;spacingLeft=4;spacingRight=4;overflow=hidden;rotatable=0;points=[[0,0.5],[1,0.5]];portConstraint=eastwest;" vertex="1" parent="q6EzRjUbAgPRYSUWs--T-21">
          <mxGeometry y="26" width="140" height="26" as="geometry" />
        </mxCell>
        <mxCell id="q6EzRjUbAgPRYSUWs--T-23" value="МРФ" style="text;strokeColor=none;fillColor=none;align=left;verticalAlign=top;spacingLeft=4;spacingRight=4;overflow=hidden;rotatable=0;points=[[0,0.5],[1,0.5]];portConstraint=eastwest;" vertex="1" parent="q6EzRjUbAgPRYSUWs--T-21">
          <mxGeometry y="52" width="140" height="26" as="geometry" />
        </mxCell>
        <mxCell id="q6EzRjUbAgPRYSUWs--T-24" value="Начисления" style="text;strokeColor=none;fillColor=none;align=left;verticalAlign=top;spacingLeft=4;spacingRight=4;overflow=hidden;rotatable=0;points=[[0,0.5],[1,0.5]];portConstraint=eastwest;" vertex="1" parent="q6EzRjUbAgPRYSUWs--T-21">
          <mxGeometry y="78" width="140" height="26" as="geometry" />
        </mxCell>
        <mxCell id="q6EzRjUbAgPRYSUWs--T-40" value="График динамики начислений по МРФ по датам" style="swimlane;fontStyle=0;childLayout=stackLayout;horizontal=1;startSize=40;fillColor=none;horizontalStack=0;resizeParent=1;resizeParentMax=0;resizeLast=0;collapsible=1;marginBottom=0;" vertex="1" parent="WIyWlLk6GJQsqaUBKTNV-1">
          <mxGeometry x="-100" y="130" width="280" height="120" as="geometry" />
        </mxCell>
        <mxCell id="q6EzRjUbAgPRYSUWs--T-41" value="Ось Х: Дата" style="text;strokeColor=none;fillColor=none;align=left;verticalAlign=top;spacingLeft=4;spacingRight=4;overflow=hidden;rotatable=0;points=[[0,0.5],[1,0.5]];portConstraint=eastwest;" vertex="1" parent="q6EzRjUbAgPRYSUWs--T-40">
          <mxGeometry y="40" width="280" height="26" as="geometry" />
        </mxCell>
        <mxCell id="q6EzRjUbAgPRYSUWs--T-44" value="Ось Y: Начисления" style="text;strokeColor=none;fillColor=none;align=left;verticalAlign=top;spacingLeft=4;spacingRight=4;overflow=hidden;rotatable=0;points=[[0,0.5],[1,0.5]];portConstraint=eastwest;" vertex="1" parent="q6EzRjUbAgPRYSUWs--T-40">
          <mxGeometry y="66" width="280" height="24" as="geometry" />
        </mxCell>
        <mxCell id="q6EzRjUbAgPRYSUWs--T-42" value="Фильтр: МРФ" style="text;strokeColor=none;fillColor=none;align=left;verticalAlign=top;spacingLeft=4;spacingRight=4;overflow=hidden;rotatable=0;points=[[0,0.5],[1,0.5]];portConstraint=eastwest;" vertex="1" parent="q6EzRjUbAgPRYSUWs--T-40">
          <mxGeometry y="90" width="280" height="30" as="geometry" />
        </mxCell>
        <mxCell id="q6EzRjUbAgPRYSUWs--T-45" value="Столбчатый график сравнения начислений по МРФ" style="swimlane;fontStyle=0;childLayout=stackLayout;horizontal=1;startSize=40;fillColor=none;horizontalStack=0;resizeParent=1;resizeParentMax=0;resizeLast=0;collapsible=1;marginBottom=0;" vertex="1" parent="WIyWlLk6GJQsqaUBKTNV-1">
          <mxGeometry x="-133" y="270" width="313" height="120" as="geometry" />
        </mxCell>
        <mxCell id="q6EzRjUbAgPRYSUWs--T-46" value="Ось Х: МРФ" style="text;strokeColor=none;fillColor=none;align=left;verticalAlign=top;spacingLeft=4;spacingRight=4;overflow=hidden;rotatable=0;points=[[0,0.5],[1,0.5]];portConstraint=eastwest;" vertex="1" parent="q6EzRjUbAgPRYSUWs--T-45">
          <mxGeometry y="40" width="313" height="26" as="geometry" />
        </mxCell>
        <mxCell id="q6EzRjUbAgPRYSUWs--T-47" value="Ось Y: Начисления" style="text;strokeColor=none;fillColor=none;align=left;verticalAlign=top;spacingLeft=4;spacingRight=4;overflow=hidden;rotatable=0;points=[[0,0.5],[1,0.5]];portConstraint=eastwest;" vertex="1" parent="q6EzRjUbAgPRYSUWs--T-45">
          <mxGeometry y="66" width="313" height="24" as="geometry" />
        </mxCell>
        <mxCell id="q6EzRjUbAgPRYSUWs--T-48" value="Фильтр: Дата" style="text;strokeColor=none;fillColor=none;align=left;verticalAlign=top;spacingLeft=4;spacingRight=4;overflow=hidden;rotatable=0;points=[[0,0.5],[1,0.5]];portConstraint=eastwest;" vertex="1" parent="q6EzRjUbAgPRYSUWs--T-45">
          <mxGeometry y="90" width="313" height="30" as="geometry" />
        </mxCell>
        <mxCell id="q6EzRjUbAgPRYSUWs--T-49" style="edgeStyle=orthogonalEdgeStyle;rounded=0;orthogonalLoop=1;jettySize=auto;html=1;" edge="1" parent="WIyWlLk6GJQsqaUBKTNV-1" source="q6EzRjUbAgPRYSUWs--T-22" target="q6EzRjUbAgPRYSUWs--T-41">
          <mxGeometry relative="1" as="geometry" />
        </mxCell>
        <mxCell id="q6EzRjUbAgPRYSUWs--T-51" style="edgeStyle=orthogonalEdgeStyle;rounded=0;orthogonalLoop=1;jettySize=auto;html=1;entryX=1;entryY=0.5;entryDx=0;entryDy=0;" edge="1" parent="WIyWlLk6GJQsqaUBKTNV-1" source="q6EzRjUbAgPRYSUWs--T-24" target="q6EzRjUbAgPRYSUWs--T-44">
          <mxGeometry relative="1" as="geometry">
            <Array as="points">
              <mxPoint x="210" y="291" />
              <mxPoint x="210" y="208" />
            </Array>
          </mxGeometry>
        </mxCell>
        <mxCell id="q6EzRjUbAgPRYSUWs--T-52" style="edgeStyle=orthogonalEdgeStyle;rounded=0;orthogonalLoop=1;jettySize=auto;html=1;entryX=1;entryY=0.5;entryDx=0;entryDy=0;" edge="1" parent="WIyWlLk6GJQsqaUBKTNV-1" source="q6EzRjUbAgPRYSUWs--T-23" target="q6EzRjUbAgPRYSUWs--T-42">
          <mxGeometry relative="1" as="geometry">
            <Array as="points">
              <mxPoint x="200" y="265" />
              <mxPoint x="200" y="235" />
            </Array>
          </mxGeometry>
        </mxCell>
        <mxCell id="q6EzRjUbAgPRYSUWs--T-53" style="edgeStyle=orthogonalEdgeStyle;rounded=0;orthogonalLoop=1;jettySize=auto;html=1;entryX=1;entryY=0.5;entryDx=0;entryDy=0;" edge="1" parent="WIyWlLk6GJQsqaUBKTNV-1" source="q6EzRjUbAgPRYSUWs--T-22" target="q6EzRjUbAgPRYSUWs--T-48">
          <mxGeometry relative="1" as="geometry">
            <Array as="points">
              <mxPoint x="230" y="239" />
              <mxPoint x="230" y="375" />
            </Array>
          </mxGeometry>
        </mxCell>
        <mxCell id="q6EzRjUbAgPRYSUWs--T-54" style="edgeStyle=orthogonalEdgeStyle;rounded=0;orthogonalLoop=1;jettySize=auto;html=1;entryX=1;entryY=0.5;entryDx=0;entryDy=0;" edge="1" parent="WIyWlLk6GJQsqaUBKTNV-1" source="q6EzRjUbAgPRYSUWs--T-23" target="q6EzRjUbAgPRYSUWs--T-46">
          <mxGeometry relative="1" as="geometry">
            <Array as="points">
              <mxPoint x="200" y="265" />
              <mxPoint x="200" y="323" />
            </Array>
          </mxGeometry>
        </mxCell>
        <mxCell id="q6EzRjUbAgPRYSUWs--T-55" style="edgeStyle=orthogonalEdgeStyle;rounded=0;orthogonalLoop=1;jettySize=auto;html=1;entryX=1;entryY=0.5;entryDx=0;entryDy=0;" edge="1" parent="WIyWlLk6GJQsqaUBKTNV-1" source="q6EzRjUbAgPRYSUWs--T-24" target="q6EzRjUbAgPRYSUWs--T-47">
          <mxGeometry relative="1" as="geometry">
            <Array as="points">
              <mxPoint x="210" y="291" />
              <mxPoint x="210" y="348" />
            </Array>
          </mxGeometry>
        </mxCell>
        <mxCell id="q6EzRjUbAgPRYSUWs--T-58" value="BI (Qlik, Power BI, Oracle BI)" style="shape=partialRectangle;whiteSpace=wrap;html=1;bottom=1;right=1;left=1;top=0;fillColor=none;routingCenterX=-0.5;rotation=0;verticalAlign=middle;" vertex="1" parent="WIyWlLk6GJQsqaUBKTNV-1">
          <mxGeometry x="-170" y="60" width="420" height="60" as="geometry" />
        </mxCell>
      </root>
    </mxGraphModel>
  </diagram>
</mxfile>
